<?xml version="1.0" encoding="UTF-8" standalone="no"?>
<!DOCTYPE svg PUBLIC "-//W3C//DTD SVG 1.1//EN" "http://www.w3.org/Graphics/SVG/1.1/DTD/svg11.dtd">
<svg width="100%" height="100%" viewBox="0 0 2048 2048" version="1.1" xmlns="http://www.w3.org/2000/svg" xmlns:xlink="http://www.w3.org/1999/xlink" xml:space="preserve" xmlns:serif="http://www.serif.com/" style="fill-rule:evenodd;clip-rule:evenodd;stroke-linejoin:round;stroke-miterlimit:2;">
    <rect x="0" y="0" width="2048" height="2048" style="fill:rgb(0,19,26);"/>
    <g transform="matrix(0.714012,0,0,0.714012,292.852,292.852)">
        <path d="M1481.2,1075.69C1461.9,1078.67 1446.42,1084.14 1437.37,1092.18C1423.17,1104.81 1397.8,1142.03 1349.66,1119.4C1305.43,1098.61 1314.9,1078.99 1293.1,1075.69L1277.36,1075.69C1246.11,1078.97 1199.49,1097.71 1180.96,1096.58C1160.51,1095.33 1142.96,1076.22 1108.8,1076.48C1105.99,1076.51 1104.12,1076.22 1103.06,1075.69L1078.62,1075.69L1078.62,995.731L1884.09,995.731L1884.09,996.022L1884.38,995.731L1940.92,1052.27L1592.61,1400.57C1588.1,1411.7 1596.76,1419.37 1583.22,1433.23C1562.88,1454.06 1538.7,1460.94 1526.56,1466.62L1513.5,1479.69C1503.4,1498.44 1514.1,1516.73 1502.62,1526.6C1478.35,1547.44 1463.71,1545.75 1444.64,1564.85C1424.79,1584.73 1420.45,1617.23 1423.69,1632.73C1430.56,1665.57 1428.85,1672.81 1415.24,1693.71C1403.98,1710.99 1380.74,1697.9 1375.41,1682.05C1367.62,1658.89 1332.06,1669.12 1316.16,1677.02L1063.98,1929.21L984.022,1929.21L984.022,231.866L964.789,251.099C951.491,266.517 967.109,274.234 950.902,290.834C925.765,316.582 894.775,321.02 887.873,328.214C867.044,349.928 883.631,372.75 870.294,384.207C846.027,405.054 831.385,403.354 812.319,422.457C792.47,442.343 788.13,474.834 791.371,490.34C798.234,523.179 796.528,530.423 782.916,551.319C771.661,568.596 748.418,555.513 743.087,539.655C733.863,512.214 685.616,531.669 677.34,538.548L640.471,575.417L583.934,518.88L984.022,118.792L1063.98,118.792L1063.98,1816.13L1415.4,1464.71C1430.32,1448.53 1429.29,1419.75 1445.84,1402.8C1470.98,1377.05 1479.7,1389.74 1495.19,1369.29C1513.36,1345.31 1531.4,1323.7 1568.75,1292.38C1590.27,1274.32 1570.65,1251.16 1589.69,1224.49C1625.97,1173.67 1674.15,1204.77 1703.99,1176.05C1703.99,1176.05 1698.68,1181.39 1689.51,1190.61L1804.42,1075.69L1481.2,1075.69ZM718.799,1192.84C718.799,1192.84 661.082,1268.59 669.255,1299.42C679.01,1336.22 704.533,1334.63 721.572,1331.81C738.61,1329 748.573,1313.56 752.158,1297.31C755.744,1281.06 738.508,1258.28 729.541,1237.79C722.773,1222.32 718.799,1192.84 718.799,1192.84ZM723.725,1129.86C728.286,1129.86 731.988,1134.19 731.988,1139.54C731.988,1144.88 728.286,1149.21 723.725,1149.21C719.165,1149.21 715.462,1144.88 715.462,1139.54C715.462,1134.19 719.165,1129.86 723.725,1129.86ZM731.692,1065.94C736.253,1065.94 739.955,1070.27 739.955,1075.61C739.955,1080.95 736.253,1085.29 731.692,1085.29C727.132,1085.29 723.429,1080.95 723.429,1075.61C723.429,1070.27 727.132,1065.94 731.692,1065.94ZM243.155,972.733L163.62,1052.27C144.774,1033.42 125.928,1014.58 107.082,995.731L507.081,595.733L563.618,652.27L524.029,691.86C512.355,708.454 512.045,734.168 496.778,749.805C471.641,775.553 462.918,762.858 447.425,783.31C429.257,807.294 411.223,828.902 373.874,860.228C352.346,878.283 371.964,901.44 352.926,928.111C318.434,976.433 273.168,950.689 243.155,972.733ZM644.474,599.646C664.879,617.393 684.595,628.783 699.967,629.806C718.928,631.069 763.258,623.034 780.9,673.212C797.64,720.826 775.096,726.75 790.804,745.976L799.022,754.194C822.857,774.561 870.544,795.163 882.982,809.446C895.347,823.644 895.249,846.679 913.894,869.066L969.38,924.552L969.38,1037.63L889.13,957.376C873.361,946.777 838.191,932.795 823.515,937.944C771.803,956.085 750.561,967.355 725.415,934.696C696.137,896.668 716.283,820.402 662.682,733.479C661.83,732.098 631.487,700.276 619.433,687.679L517.284,585.53C536.129,566.684 554.975,547.839 573.821,528.993L644.474,599.646Z" style="fill:url(#_Linear1);"/>
    </g>
    <defs>
        <linearGradient id="_Linear1" x1="0" y1="0" x2="1" y2="0" gradientUnits="userSpaceOnUse" gradientTransform="matrix(1833.84,0,0,1810.42,107.082,1024)"><stop offset="0" style="stop-color:rgb(99,123,255);stop-opacity:1"/><stop offset="0.57" style="stop-color:rgb(76,255,144);stop-opacity:1"/><stop offset="1" style="stop-color:rgb(255,142,95);stop-opacity:1"/></linearGradient>
    </defs>
</svg>
